<svg xmlns="http://www.w3.org/2000/svg" viewBox="-126.8 395.5 35.7 40" enable-background="new -126.8 395.5 35.7 40"><g transform="translate(-8 -5)"><defs><filter id="a" filterUnits="userSpaceOnUse" x="-118.8" y="400.5" width="35.6" height="17.8"><feColorMatrix values="1 0 0 0 0 0 1 0 0 0 0 0 1 0 0 0 0 0 1 0"/></filter></defs><mask maskUnits="userSpaceOnUse" x="-118.8" y="400.5" width="35.6" height="17.8" id="b"><path fill="#FFF" d="M-120.3 399.6h38.8v20.9h-38.8v-20.9z" filter="url(#a)"/></mask><g mask="url(#b)"><path fill="#FFC220" d="M-106.7 415.1l-8.6-6c-.9-.5-2.2.1-3 1.4-.8 1.3-.6 2.8.3 3.3l9.5 4.4c.6.2 1.4-.2 1.9-1 .4-.8.4-1.7-.1-2.1zm11.4 2.1c.5.8 1.3 1.2 1.9 1l9.5-4.4c.9-.5 1-2 .3-3.3-.8-1.3-2.1-1.9-3-1.4l-8.6 6c-.6.4-.6 1.3-.1 2.1zm-3.9-4.3l.9-10.5c0-1-1.2-1.9-2.7-1.9-1.5 0-2.7.8-2.7 1.9l.9 10.5c.1.6.9 1.1 1.8 1.1s1.7-.5 1.8-1.1z"/></g></g><g transform="translate(-8 -5)"><defs><filter id="c" filterUnits="userSpaceOnUse" x="-118.8" y="422.7" width="35.6" height="17.8"><feColorMatrix values="1 0 0 0 0 0 1 0 0 0 0 0 1 0 0 0 0 0 1 0"/></filter></defs><mask maskUnits="userSpaceOnUse" x="-118.8" y="422.7" width="35.6" height="17.8" id="d"><path fill="#FFF" d="M-81.7 441.3h-38.7v-20.9h38.7v20.9z" filter="url(#c)"/></mask><g mask="url(#d)"><path fill="#FFC220" d="M-95.3 425.9l8.6 6c.9.5 2.2-.1 3-1.4.8-1.3.6-2.8-.3-3.3l-9.5-4.4c-.6-.2-1.4.2-1.9 1-.4.7-.4 1.6.1 2.1zm-11.3-2.2c-.5-.8-1.3-1.2-1.9-1l-9.5 4.4c-.9.5-1 2-.3 3.3.8 1.3 2.1 1.9 3 1.4l8.6-6c.5-.4.5-1.3.1-2.1zm3.8 4.4l-.9 10.4c0 1 1.2 1.9 2.7 1.9 1.5 0 2.7-.8 2.7-1.9l-.9-10.4c-.1-.6-.9-1.1-1.8-1.1s-1.7.5-1.8 1.1z"/></g></g></svg>